<?xml version="1.0" encoding="UTF-8"?>
<svg version="1.1" xmlns="http://www.w3.org/2000/svg" width="512" height="512">
<path d="M0 0 C0.64627856 -0.00235223 1.29255713 -0.00470446 1.95841989 -0.00712797 C4.13292826 -0.01380672 6.30737673 -0.01336009 8.48189449 -0.01294994 C10.05318176 -0.01624927 11.62446818 -0.01997499 13.19575351 -0.02409142 C17.52088185 -0.03411176 21.8459963 -0.03782827 26.17113459 -0.04048073 C30.83321925 -0.0443837 35.49529292 -0.05396208 40.15737057 -0.0626936 C51.42022024 -0.08245861 62.68307081 -0.09252444 73.94593349 -0.10142139 C79.24976005 -0.10580438 84.55358561 -0.11117118 89.85741138 -0.11641026 C107.48865107 -0.13342287 125.11989014 -0.14791692 142.75113678 -0.155159 C147.32683024 -0.15706889 151.90252369 -0.15898923 156.47821712 -0.16094494 C158.18411826 -0.16167055 158.18411826 -0.16167055 159.92448204 -0.16241082 C178.34642802 -0.17071067 196.76830906 -0.19604669 215.19022668 -0.22852562 C234.10342529 -0.26159884 253.01659089 -0.27960801 271.92981857 -0.28280324 C282.54894915 -0.28496813 293.16798504 -0.29371375 303.78708744 -0.31926441 C312.8311223 -0.340975 321.87503947 -0.34902005 330.91909743 -0.33929763 C335.53211199 -0.33475394 340.14488372 -0.3366432 344.75786495 -0.35605907 C348.98540214 -0.37369864 353.21251951 -0.37268667 357.4400612 -0.35716178 C358.96503143 -0.35478691 360.4900308 -0.35910303 362.01495654 -0.37099043 C374.76844429 -0.46420755 384.8165913 1.56130042 394.57269955 10.13422108 C395.17855892 10.63566639 395.7844183 11.1371117 396.40863705 11.65375233 C402.85175379 17.43567586 408.16526946 26.45093494 408.70150071 35.24701315 C408.70328928 36.01112318 408.70507785 36.77523321 408.70692062 37.56249809 C408.71137847 38.44846108 408.71583631 39.33442406 408.72042924 40.2472344 C408.7201527 41.70095368 408.7201527 41.70095368 408.71987057 43.18404102 C408.72354726 44.2169198 408.72722394 45.24979857 408.73101205 46.31397671 C408.74205309 49.78604558 408.74589347 53.25808453 408.7497015 56.73016834 C408.75596587 59.21534285 408.76261265 61.70051643 408.76961422 64.18568897 C408.78884406 71.65169562 408.79944331 79.11769431 408.80834201 86.58371845 C408.81272809 90.10235854 408.81809412 93.62099713 408.82333088 97.13963604 C408.84034244 108.84151268 408.85483525 120.54338839 408.86207962 132.2452755 C408.86398942 135.2809299 408.86590976 138.31658429 408.86786556 141.35223866 C408.8683493 142.10670739 408.86883304 142.86117612 408.86933144 143.63850754 C408.87762668 155.85260399 408.90295532 168.06660234 408.93544624 180.28065599 C408.968555 192.82962541 408.98653187 205.37854505 408.98972386 217.92755836 C408.99188556 224.96966316 409.00058409 232.01162496 409.02618504 239.0536871 C409.05022508 245.68159247 409.05369378 252.30928733 409.04342365 258.93724346 C409.04292847 261.36598408 409.04924353 263.79473739 409.0629797 266.22343922 C409.0807248 269.54777073 409.07357868 272.87118264 409.06044674 276.19551563 C409.07141599 277.14904676 409.08238523 278.1025779 409.09368688 279.08500391 C408.99397146 289.59258162 405.47901834 298.27472996 398.57269955 306.13422108 C398.07125423 306.74008045 397.56980892 307.34593983 397.0531683 307.97015858 C391.5733358 314.07663859 383.65828882 318.55370046 375.57269955 320.13422108 C373.4318615 320.22821782 371.2882971 320.26511786 369.14539909 320.26844215 C368.49912053 320.27079438 367.85284197 320.27314661 367.1869792 320.27557012 C365.01247083 320.28224887 362.83802237 320.28180224 360.6635046 320.2813921 C359.09221733 320.28469143 357.52093092 320.28841714 355.94964558 320.29253358 C351.62451725 320.30255391 347.2994028 320.30627043 342.9742645 320.30892289 C338.31217984 320.31282586 333.65010617 320.32240423 328.98802853 320.33113575 C317.72517885 320.35090076 306.46232828 320.3609666 295.1994656 320.36986354 C289.89563904 320.37424654 284.59181348 320.37961333 279.28798771 320.38485241 C261.65674802 320.40186502 244.02550895 320.41635908 226.39426231 320.42360115 C221.81856886 320.42551105 217.24287541 320.42743138 212.66718197 320.42938709 C210.96128084 320.4301127 210.96128084 320.4301127 209.22091705 320.43085297 C190.79897107 320.43915282 172.37709004 320.46448884 153.95517241 320.49696777 C135.04197381 320.53004099 116.1288082 320.54805017 97.21558052 320.55124539 C86.59644994 320.55341028 75.97741405 320.5621559 65.35831165 320.58770657 C56.31427679 320.60941716 47.27035963 320.6174622 38.22630166 320.60773978 C33.61328711 320.60319609 29.00051537 320.60508536 24.38753414 320.62450123 C20.15999695 320.64214079 15.93287959 320.64112882 11.70533789 320.62560394 C10.18036766 320.62322906 8.6553683 320.62754519 7.13044255 320.63943259 C-5.6230452 320.7326497 -15.6711922 318.70714173 -25.42730045 310.13422108 C-26.03315983 309.63277576 -26.6390192 309.13133045 -27.26323795 308.61468983 C-33.70635469 302.83276629 -39.01987037 293.81750722 -39.55610162 285.021429 C-39.55789019 284.25731897 -39.55967876 283.49320894 -39.56152153 282.70594406 C-39.56597937 281.81998108 -39.57043722 280.9340181 -39.57503015 280.02120775 C-39.57484579 279.05206157 -39.57466142 278.08291538 -39.57447147 277.08440113 C-39.57814816 276.05152236 -39.58182485 275.01864358 -39.58561295 273.95446545 C-39.59665399 270.48239657 -39.60049438 267.01035762 -39.60430241 263.53827381 C-39.61056678 261.0530993 -39.61721356 258.56792573 -39.62421513 256.08275318 C-39.64344496 248.61674654 -39.65404421 241.15074784 -39.66294292 233.68472371 C-39.667329 230.16608361 -39.67269503 226.64744502 -39.67793179 223.12880611 C-39.69494335 211.42692947 -39.70943616 199.72505376 -39.71668053 188.02316666 C-39.71859033 184.98751226 -39.72051067 181.95185787 -39.72246647 178.9162035 C-39.72295021 178.16173477 -39.72343395 177.40726604 -39.72393235 176.62993462 C-39.73222758 164.41583817 -39.75755623 152.20183981 -39.79004715 139.98778617 C-39.8231559 127.43881675 -39.84113278 114.88989711 -39.84432477 102.34088379 C-39.84648647 95.29877899 -39.855185 88.2568172 -39.88078594 81.21475506 C-39.90482598 74.58684968 -39.90829469 67.95915482 -39.89802456 61.33119869 C-39.89752938 58.90245808 -39.90384443 56.47370476 -39.9175806 54.04500294 C-39.9353257 50.72067142 -39.92817959 47.39725952 -39.91504765 44.07292652 C-39.92601689 43.11939539 -39.93698614 42.16586426 -39.94828779 41.18343824 C-39.84857237 30.67586053 -36.33361924 21.99371219 -29.42730045 14.13422108 C-28.92585514 13.5283617 -28.42440983 12.92250233 -27.9077692 12.29828358 C-20.67328155 4.23649441 -10.68893874 0.01658183 0 0 Z " fill="#1565C0" transform="translate(71.42730045318604,95.86577892303467)"/>
<path d="M0 0 C1.39120471 0.00015906 2.78241534 0.00585033 4.17358398 0.01586914 C4.90463852 0.01728409 5.63569305 0.01869904 6.38890076 0.02015686 C8.73253406 0.02577131 11.07607313 0.03832617 13.41967773 0.05102539 C15.00496282 0.05603853 16.59024939 0.06060176 18.17553711 0.06469727 C22.06945383 0.07574542 25.96329979 0.09301967 29.85717773 0.11352539 C30.04390549 1.05382599 30.04390549 1.05382599 30.23440552 2.01312256 C36.98438452 36.35821105 36.98438452 36.35821105 44.16967773 70.61352539 C46.31695043 80.44434708 48.3115398 90.29886508 50.23217773 100.17602539 C50.43298447 101.20203857 50.43298447 101.20203857 50.6378479 102.2487793 C51.01368385 104.17311546 51.38475989 106.09837942 51.75561523 108.02368164 C52.0753833 109.68089233 52.0753833 109.68089233 52.40161133 111.37158203 C52.85717773 114.11352539 52.85717773 114.11352539 52.85717773 117.11352539 C43.61717773 117.11352539 34.37717773 117.11352539 24.85717773 117.11352539 C21.85717773 103.48852539 21.85717773 103.48852539 21.85717773 100.11352539 C9.31717773 100.44352539 -3.22282227 100.77352539 -16.14282227 101.11352539 C-18.12282227 106.39352539 -20.10282227 111.67352539 -22.14282227 117.11352539 C-32.37282227 117.11352539 -42.60282227 117.11352539 -53.14282227 117.11352539 C-49.80077138 107.80997832 -46.16305496 98.74786638 -42.13891602 89.71899414 C-36.13348368 76.15590949 -30.31358671 62.51723214 -24.51782227 48.86352539 C-23.536203 46.55356514 -22.55443241 44.24366919 -21.57250977 41.93383789 C-21.09009827 40.79901978 -20.60768677 39.66420166 -20.11065674 38.49499512 C-18.23901759 34.09306436 -16.36663976 29.69144825 -14.49377441 25.29003906 C-13.59106436 23.16748362 -12.68913094 21.04459772 -11.78796387 18.92138672 C-10.52568277 15.94801346 -9.26040143 12.97593462 -7.99438477 10.00415039 C-7.61728363 9.11387146 -7.2401825 8.22359253 -6.85165405 7.30633545 C-6.50768585 6.5005304 -6.16371765 5.69472534 -5.80932617 4.86450195 C-5.50991119 4.16021057 -5.21049622 3.45591919 -4.90200806 2.73028564 C-3.56292056 -0.12143189 -3.43480236 0.12407233 0 0 Z " fill="#FDFDFE" transform="translate(376.142822265625,202.886474609375)"/>
<path d="M0 0 C10.56 0 21.12 0 32 0 C31.21781116 3.9109442 30.34903392 6.94229185 28.89306641 10.58911133 C28.45330475 11.69673325 28.01354309 12.80435516 27.56045532 13.94554138 C27.07902069 15.14558304 26.59758606 16.34562469 26.1015625 17.58203125 C25.59347612 18.8574768 25.0857845 20.13307967 24.57846069 21.40882874 C23.21457244 24.83563572 21.84560335 28.26039152 20.47564697 31.68477631 C19.05636976 35.23481509 17.64154201 38.78662543 16.2265625 42.33837891 C14.50332955 46.66342043 12.77986748 50.98836875 11.05450439 55.31256104 C7.40010529 64.47306226 3.76514975 73.64095606 0.1484375 82.81640625 C-0.29567474 83.94240738 -0.73978699 85.06840851 -1.19735718 86.22853088 C-2.8765311 90.48642356 -4.55550864 94.74438644 -6.23016357 99.00405884 C-7.35950709 101.87600211 -8.49192359 104.74671539 -9.625 107.6171875 C-9.95609772 108.46201187 -10.28719543 109.30683624 -10.62832642 110.17726135 C-12.88626305 115.88626305 -12.88626305 115.88626305 -14 117 C-16.52094076 117.08847743 -19.01430893 117.11527301 -21.53515625 117.09765625 C-22.66503212 117.09553383 -22.66503212 117.09553383 -23.81773376 117.09336853 C-26.2326956 117.08775376 -28.64756601 117.07519883 -31.0625 117.0625 C-32.69596221 117.0574869 -34.32942586 117.05292366 -35.96289062 117.04882812 C-39.97529585 117.03777954 -43.98763241 117.02050506 -48 117 C-48.31453125 115.71867187 -48.6290625 114.43734375 -48.953125 113.1171875 C-51.76947866 101.66797228 -51.76947866 101.66797228 -54.9375 90.3125 C-57.168113 82.69048634 -58.95592709 74.96886357 -60.78662109 67.24267578 C-62.4159781 60.38206249 -64.14537302 53.56699732 -65.9921875 46.76171875 C-67.26323208 42.01747094 -68.48336834 37.26161652 -69.6875 32.5 C-69.90220947 31.66235107 -70.11691895 30.82470215 -70.33813477 29.96166992 C-71.50619253 25.31603866 -72.41833646 20.7555788 -73 16 C-73.65613281 15.74992188 -74.31226562 15.49984375 -74.98828125 15.2421875 C-78.79058462 13.6739223 -82.47806069 11.899561 -86.1875 10.125 C-92.37510532 7.18504018 -98.57816102 4.39832807 -105 2 C-105 1.67 -105 1.34 -105 1 C-98.20495808 0.8724867 -91.41022837 0.78535143 -84.61425781 0.7253418 C-82.30587229 0.70030683 -79.99756517 0.66626846 -77.68945312 0.62280273 C-74.35787535 0.56166627 -71.02735187 0.53367893 -67.6953125 0.51171875 C-66.165009 0.47300911 -66.165009 0.47300911 -64.60379028 0.43351746 C-57.44837641 0.43076077 -51.9468682 1.91077028 -46 6 C-40.5462404 11.80321558 -39.62958194 19.06973101 -38.375 26.6875 C-37.96139413 29.01854191 -37.54605132 31.34927634 -37.12890625 33.6796875 C-36.93570801 34.78151367 -36.74250977 35.88333984 -36.54345703 37.01855469 C-35.91133883 40.4864017 -35.14949008 43.88883205 -34.3125 47.3125 C-33.06546773 52.48277985 -32.22901847 57.65911941 -31.47265625 62.921875 C-31.03246695 65.78856232 -30.48196246 68.60217887 -29.875 71.4375 C-29.12741177 75.01774674 -28.80665313 78.32640953 -29 82 C-28.34 82 -27.68 82 -27 82 C-26.91532471 81.09475586 -26.83064941 80.18951172 -26.7434082 79.25683594 C-25.92806146 73.60185487 -23.93149923 68.28369322 -22.10546875 62.890625 C-21.71684158 61.72803162 -21.32821442 60.56543823 -20.92781067 59.36761475 C-19.68664793 55.65983587 -18.43702351 51.9549685 -17.1875 48.25 C-16.35820454 45.77361138 -15.52942318 43.29705054 -14.70117188 40.8203125 C-13.89889876 38.42692867 -13.09617871 36.03369459 -12.29296875 33.640625 C-11.92302292 32.53817444 -11.55307709 31.43572388 -11.17192078 30.29986572 C-7.72086613 20.07083203 -4.01102345 10.02755863 0 0 Z " fill="#FDFDFE" transform="translate(162,203)"/>
<path d="M0 0 C-1.10815916 8.20037776 -2.61681525 16.07193875 -5 24 C-6.396478 23.54363464 -7.7921508 23.08480512 -9.1875 22.625 C-9.96480469 22.36976563 -10.74210937 22.11453125 -11.54296875 21.8515625 C-14 21 -14 21 -16.2421875 19.91796875 C-20.15660133 18.6150123 -23.83910167 18.67077184 -27.9375 18.6875 C-29.11602539 18.66333008 -29.11602539 18.66333008 -30.31835938 18.63867188 C-35.29828975 18.63450457 -38.6698281 19.28784027 -43 22 C-45.26433619 24.26433619 -45.93829978 25.36757273 -46.25 28.5625 C-46.07536753 31.13687147 -46.07536753 31.13687147 -45 34 C-43.19368195 35.11187094 -43.19368195 35.11187094 -41 36 C-10.39438889 51.27927829 -10.39438889 51.27927829 -5 64 C-2.67993165 70.96020504 -3.59350025 77.85588749 -6.54296875 84.484375 C-14.17098719 97.65446582 -27.61553236 106.06598653 -41.87890625 110.44140625 C-57.39817983 114.5284341 -75.51750267 112.5863077 -90 106 C-89.20363476 100.81943455 -88.09064396 95.73469093 -86.9375 90.625 C-86.75123047 89.79355469 -86.56496094 88.96210938 -86.37304688 88.10546875 C-85.91681802 86.06998618 -85.45860975 84.03494745 -85 82 C-84.38640625 82.21092285 -83.7728125 82.4218457 -83.140625 82.63916016 C-82.43421875 82.8819873 -81.7278125 83.12481445 -81 83.375 C-79.88625 83.75785156 -79.88625 83.75785156 -78.75 84.1484375 C-71.24839907 86.47137642 -64.78205908 87.33909173 -56.9375 87.3125 C-55.98294922 87.32861328 -55.02839844 87.34472656 -54.04492188 87.36132812 C-47.42247091 87.36589848 -42.16692075 86.77105565 -37 82.25 C-35.46029002 78.78565254 -35.98785251 76.60577543 -37 73 C-41.13012737 67.8625245 -46.413054 65.5423287 -52.25 62.6875 C-62.16906951 57.63740719 -71.4573635 52.7396975 -76.18359375 42.1015625 C-78.41958718 33.60692716 -78.66048652 23.38927806 -74.9375 15.3125 C-73.5234375 13.03125 -73.5234375 13.03125 -72 11 C-71.53851563 10.3709375 -71.07703125 9.741875 -70.6015625 9.09375 C-63.92519167 1.36678275 -52.57100766 -3.59503724 -42.58203125 -4.78515625 C-13.10613437 -6.55306719 -13.10613437 -6.55306719 0 0 Z " fill="#FCFDFE" transform="translate(328,208)"/>
<path d="M0 0 C10.23 0 20.46 0 31 0 C31 10.73776224 31 10.73776224 29.56640625 16.4921875 C28.63299707 20.62493711 28.13924839 24.81677535 27.5625 29.01171875 C26.95196911 33.41262891 26.26065194 37.7997561 25.5625 42.1875 C25.43496338 42.98978027 25.30742676 43.79206055 25.17602539 44.61865234 C24.91466179 46.26062303 24.65302278 47.9025499 24.39111328 49.54443359 C23.62954526 54.32586379 22.87694209 59.10871256 22.12304688 63.89135742 C21.5142552 67.75111239 20.90306177 71.6104428 20.28515625 75.46875 C18.07669537 89.29596102 16.03930104 103.14681708 14 117 C3.77 117 -6.46 117 -17 117 C-16.33876478 109.06517735 -15.5592024 101.34621282 -14.328125 93.5078125 C-14.16541611 92.45130997 -14.00270721 91.39480743 -13.83506775 90.30628967 C-13.3109406 86.91185573 -12.78063483 83.51842215 -12.25 80.125 C-11.88562512 77.77387515 -11.52144981 75.42271936 -11.1574707 73.0715332 C-9.06558436 59.60082208 -6.88803092 46.14865189 -4.59399414 32.7109375 C-2.75815699 21.84087009 -1.34984422 10.94084262 0 0 Z " fill="#FCFDFE" transform="translate(206,203)"/>
<path d="M0 0 C6.79504192 -0.1275133 13.58977163 -0.21464857 20.38574219 -0.2746582 C22.69412771 -0.29969317 25.00243483 -0.33373154 27.31054688 -0.37719727 C30.64212465 -0.43833373 33.97264813 -0.46632107 37.3046875 -0.48828125 C38.834991 -0.52699089 38.834991 -0.52699089 40.39620972 -0.56648254 C47.55162359 -0.56923923 53.0531318 0.91077028 59 5 C64.45362853 10.80307611 65.37079723 18.06976473 66.625 25.6875 C67.03591465 28.00814009 67.44865425 30.32845782 67.86328125 32.6484375 C68.05615723 33.74897461 68.2490332 34.84951172 68.44775391 35.98339844 C69.28680767 40.56666469 70.36703796 45.0675686 71.51953125 49.58203125 C72.02259098 52.11368956 72.08781634 54.4255948 72 57 C69.72641093 54.07292425 67.78904492 51.04658168 65.875 47.875 C51.99511448 25.97627306 28.0328429 10.81363878 3.6328125 3.0078125 C1 2 1 2 0 0 Z " fill="#F7BE0E" transform="translate(57,204)"/>
<path d="M0 0 C3.04107641 4.56161461 3.5795519 9.63179827 4.65942383 14.95727539 C5.05513965 16.90134022 5.46590813 18.84232161 5.87695312 20.78320312 C6.13541016 22.03939453 6.39386719 23.29558594 6.66015625 24.58984375 C6.89355713 25.72284912 7.12695801 26.85585449 7.36743164 28.02319336 C8.20838422 33.31006198 8.55542984 38.66515807 9 44 C0.75 44 -7.5 44 -16 44 C-14.03669585 38.11008756 -12.03565698 32.2750548 -9.86328125 26.46484375 C-9.57897751 25.70071671 -9.29467377 24.93658966 -9.00175476 24.14930725 C-8.10676901 21.74483505 -7.20967496 19.34115609 -6.3125 16.9375 C-5.69972921 15.29237006 -5.08709779 13.64718821 -4.47460938 12.00195312 C-2.9846805 8.00070116 -1.49286229 4.00015839 0 0 Z " fill="#1E6BC2" transform="translate(384,237)"/>
</svg>
